<svg width="429" height="50" viewBox="0 0 429 50" fill="none" xmlns="http://www.w3.org/2000/svg">
<g filter="url(#filter0_d_161_43705)">
<rect x="2.5" y="1" width="424" height="46" rx="5" fill="#2C3444" shape-rendering="crispEdges"/>
<g clip-path="url(#clip0_161_43705)">
<path d="M151.283 24.2527C151.283 23.505 151.222 22.7532 151.093 22.0176H140.717V26.2535H146.659C146.412 27.6196 145.62 28.8282 144.46 29.5961V32.3446H148.005C150.086 30.4287 151.283 27.5994 151.283 24.2527Z" fill="white"/>
<path d="M140.717 35.0001C143.684 35.0001 146.186 34.026 148.009 32.3445L144.464 29.5961C143.478 30.267 142.205 30.647 140.721 30.647C137.852 30.647 135.419 28.7109 134.545 26.1079H130.888V28.9413C132.755 32.6558 136.558 35.0001 140.717 35.0001Z" fill="white"/>
<path d="M134.541 26.1082C134.081 24.7421 134.081 23.2628 134.541 21.8966V19.0632H130.888C129.327 22.1714 129.327 25.8334 130.888 28.9416L134.541 26.1082Z" fill="white"/>
<path d="M140.718 17.3536C142.286 17.3294 143.801 17.9195 144.937 19.0027L148.078 15.8622C146.089 13.9948 143.45 12.9682 140.718 13.0005C136.558 13.0005 132.755 15.3448 130.888 19.0633L134.542 21.8967C135.411 19.2897 137.848 17.3536 140.718 17.3536Z" fill="white"/>
</g>
<path d="M166.505 21.0898C166.455 20.6246 166.245 20.2624 165.876 20.0032C165.51 19.744 165.034 19.6143 164.449 19.6143C164.037 19.6143 163.683 19.6765 163.388 19.8008C163.094 19.9251 162.868 20.0937 162.712 20.3068C162.556 20.5199 162.476 20.7631 162.472 21.0366C162.472 21.2638 162.524 21.4609 162.627 21.6278C162.733 21.7947 162.877 21.9368 163.058 22.054C163.239 22.1676 163.44 22.2635 163.66 22.3416C163.88 22.4197 164.102 22.4854 164.326 22.5387L165.349 22.7944C165.761 22.8903 166.157 23.0199 166.537 23.1832C166.92 23.3466 167.263 23.5526 167.565 23.8011C167.87 24.0497 168.112 24.3498 168.289 24.7013C168.467 25.0529 168.555 25.4648 168.555 25.9371C168.555 26.5763 168.392 27.1392 168.065 27.6257C167.739 28.1087 167.266 28.4869 166.648 28.7603C166.034 29.0302 165.29 29.1651 164.417 29.1651C163.568 29.1651 162.831 29.0337 162.206 28.771C161.585 28.5082 161.098 28.1246 160.746 27.6204C160.398 27.1161 160.21 26.5018 160.182 25.7773H162.126C162.154 26.1573 162.272 26.4734 162.478 26.7255C162.684 26.9776 162.952 27.1658 163.282 27.2901C163.616 27.4144 163.989 27.4766 164.401 27.4766C164.83 27.4766 165.207 27.4126 165.53 27.2848C165.857 27.1534 166.112 26.9723 166.297 26.7415C166.482 26.5071 166.576 26.2337 166.579 25.9212C166.576 25.6371 166.492 25.4027 166.329 25.218C166.165 25.0298 165.936 24.8736 165.642 24.7493C165.35 24.6214 165.01 24.5078 164.619 24.4084L163.378 24.0888C162.479 23.858 161.769 23.5082 161.247 23.0394C160.729 22.5671 160.469 21.9403 160.469 21.1591C160.469 20.5163 160.643 19.9535 160.991 19.4705C161.343 18.9876 161.821 18.6129 162.424 18.3466C163.028 18.0767 163.712 17.9418 164.475 17.9418C165.249 17.9418 165.928 18.0767 166.51 18.3466C167.096 18.6129 167.556 18.984 167.89 19.4599C168.223 19.9322 168.396 20.4755 168.406 21.0898H166.505ZM170.232 29V20.8182H172.16V29H170.232ZM171.201 19.657C170.896 19.657 170.633 19.5558 170.413 19.3533C170.193 19.1474 170.083 18.9006 170.083 18.6129C170.083 18.3217 170.193 18.0749 170.413 17.8725C170.633 17.6665 170.896 17.5636 171.201 17.5636C171.51 17.5636 171.773 17.6665 171.99 17.8725C172.21 18.0749 172.32 18.3217 172.32 18.6129C172.32 18.9006 172.21 19.1474 171.99 19.3533C171.773 19.5558 171.51 19.657 171.201 19.657ZM177.701 32.2386C177.009 32.2386 176.414 32.1445 175.917 31.9563C175.42 31.7717 175.02 31.5231 174.718 31.2106C174.417 30.8981 174.207 30.5518 174.09 30.1719L175.826 29.7511C175.904 29.9109 176.018 30.0689 176.167 30.2251C176.316 30.3849 176.517 30.5163 176.769 30.6193C177.025 30.7259 177.346 30.7791 177.733 30.7791C178.28 30.7791 178.733 30.646 179.092 30.3796C179.45 30.1168 179.63 29.6836 179.63 29.0799V27.5298H179.534C179.434 27.7287 179.289 27.9329 179.097 28.1424C178.909 28.3519 178.658 28.5277 178.346 28.6697C178.037 28.8118 177.648 28.8828 177.179 28.8828C176.551 28.8828 175.981 28.7354 175.469 28.4407C174.962 28.1424 174.557 27.6985 174.255 27.109C173.957 26.516 173.808 25.7738 173.808 24.8825C173.808 23.984 173.957 23.2259 174.255 22.608C174.557 21.9865 174.963 21.516 175.475 21.1964C175.986 20.8732 176.556 20.7116 177.185 20.7116C177.664 20.7116 178.058 20.7933 178.367 20.9567C178.68 21.1165 178.928 21.31 179.113 21.5373C179.298 21.761 179.438 21.9723 179.534 22.1712H179.64V20.8182H181.542V29.1332C181.542 29.8327 181.375 30.4116 181.041 30.8697C180.707 31.3278 180.251 31.6705 179.672 31.8977C179.093 32.125 178.436 32.2386 177.701 32.2386ZM177.717 27.37C178.126 27.37 178.474 27.2706 178.761 27.0717C179.049 26.8729 179.267 26.587 179.417 26.2141C179.566 25.8413 179.64 25.3938 179.64 24.8718C179.64 24.3569 179.566 23.9059 179.417 23.5188C179.271 23.1317 179.054 22.8317 178.767 22.6186C178.483 22.402 178.133 22.2937 177.717 22.2937C177.288 22.2937 176.929 22.4055 176.641 22.6293C176.354 22.853 176.137 23.1602 175.991 23.5508C175.846 23.9379 175.773 24.3782 175.773 24.8718C175.773 25.3725 175.846 25.8111 175.991 26.1875C176.141 26.5604 176.359 26.8516 176.647 27.0611C176.938 27.267 177.295 27.37 177.717 27.37ZM185.446 24.206V29H183.518V20.8182H185.361V22.2085H185.457C185.645 21.7504 185.945 21.3864 186.357 21.1165C186.773 20.8466 187.286 20.7116 187.897 20.7116C188.461 20.7116 188.953 20.8324 189.372 21.0739C189.795 21.3153 190.121 21.6651 190.352 22.1232C190.587 22.5813 190.702 23.1371 190.699 23.7905V29H188.77V24.0888C188.77 23.5419 188.628 23.114 188.344 22.805C188.064 22.4961 187.675 22.3416 187.178 22.3416C186.84 22.3416 186.54 22.4162 186.277 22.5653C186.018 22.7109 185.814 22.9222 185.665 23.1992C185.519 23.4762 185.446 23.8118 185.446 24.206ZM196.379 29V20.8182H198.308V29H196.379ZM197.349 19.657C197.044 19.657 196.781 19.5558 196.561 19.3533C196.34 19.1474 196.23 18.9006 196.23 18.6129C196.23 18.3217 196.34 18.0749 196.561 17.8725C196.781 17.6665 197.044 17.5636 197.349 17.5636C197.658 17.5636 197.921 17.6665 198.137 17.8725C198.357 18.0749 198.468 18.3217 198.468 18.6129C198.468 18.9006 198.357 19.1474 198.137 19.3533C197.921 19.5558 197.658 19.657 197.349 19.657ZM202.219 24.206V29H200.291V20.8182H202.134V22.2085H202.229C202.418 21.7504 202.718 21.3864 203.13 21.1165C203.545 20.8466 204.058 20.7116 204.669 20.7116C205.234 20.7116 205.726 20.8324 206.145 21.0739C206.567 21.3153 206.894 21.6651 207.125 22.1232C207.359 22.5813 207.475 23.1371 207.471 23.7905V29H205.543V24.0888C205.543 23.5419 205.401 23.114 205.117 22.805C204.836 22.4961 204.447 22.3416 203.95 22.3416C203.613 22.3416 203.313 22.4162 203.05 22.5653C202.791 22.7109 202.586 22.9222 202.437 23.1992C202.292 23.4762 202.219 23.8118 202.219 24.206ZM214.84 29L212.529 20.8182H214.494L215.932 26.571H216.007L217.477 20.8182H219.421L220.892 26.5391H220.972L222.388 20.8182H224.359L222.042 29H220.034L218.5 23.4709H218.388L216.854 29H214.84ZM225.706 29V20.8182H227.634V29H225.706ZM226.675 19.657C226.37 19.657 226.107 19.5558 225.887 19.3533C225.667 19.1474 225.556 18.9006 225.556 18.6129C225.556 18.3217 225.667 18.0749 225.887 17.8725C226.107 17.6665 226.37 17.5636 226.675 17.5636C226.984 17.5636 227.247 17.6665 227.463 17.8725C227.684 18.0749 227.794 18.3217 227.794 18.6129C227.794 18.9006 227.684 19.1474 227.463 19.3533C227.247 19.5558 226.984 19.657 226.675 19.657ZM233.702 20.8182V22.3097H228.999V20.8182H233.702ZM230.16 18.858H232.088V26.5391C232.088 26.7983 232.127 26.9972 232.206 27.1357C232.287 27.2706 232.394 27.3629 232.525 27.4126C232.657 27.4624 232.802 27.4872 232.962 27.4872C233.083 27.4872 233.193 27.4783 233.292 27.4606C233.395 27.4428 233.473 27.4268 233.527 27.4126L233.851 28.9201C233.748 28.9556 233.601 28.9947 233.409 29.0373C233.221 29.0799 232.99 29.1048 232.717 29.1119C232.234 29.1261 231.799 29.0533 231.412 28.8935C231.025 28.7301 230.718 28.478 230.49 28.1371C230.267 27.7962 230.157 27.37 230.16 26.8587V18.858ZM237.419 24.206V29H235.491V18.0909H237.376V22.2085H237.472C237.664 21.7468 237.961 21.3828 238.362 21.1165C238.767 20.8466 239.282 20.7116 239.907 20.7116C240.475 20.7116 240.97 20.8306 241.393 21.0685C241.815 21.3065 242.142 21.6545 242.373 22.1126C242.607 22.5707 242.724 23.13 242.724 23.7905V29H240.796V24.0888C240.796 23.5384 240.654 23.1104 240.37 22.805C240.089 22.4961 239.695 22.3416 239.188 22.3416C238.847 22.3416 238.541 22.4162 238.271 22.5653C238.005 22.7109 237.795 22.9222 237.643 23.1992C237.494 23.4762 237.419 23.8118 237.419 24.206ZM255.804 21.5746C255.715 21.2869 255.593 21.0295 255.437 20.8022C255.284 20.5714 255.099 20.3743 254.883 20.2109C254.67 20.0476 254.425 19.9251 254.148 19.8434C253.871 19.7582 253.569 19.7156 253.242 19.7156C252.656 19.7156 252.134 19.8629 251.676 20.1577C251.218 20.4524 250.857 20.8857 250.595 21.4574C250.335 22.0256 250.206 22.718 250.206 23.5348C250.206 24.3587 250.335 25.0565 250.595 25.6282C250.854 26.1999 251.214 26.6349 251.676 26.9332C252.138 27.228 252.674 27.3754 253.285 27.3754C253.839 27.3754 254.318 27.2688 254.723 27.0558C255.131 26.8427 255.445 26.5408 255.666 26.1502C255.886 25.756 255.996 25.2944 255.996 24.7653L256.443 24.8345H253.482V23.2898H257.908V24.6001C257.908 25.5341 257.709 26.342 257.312 27.0238C256.914 27.7056 256.367 28.2312 255.671 28.6005C254.975 28.9663 254.176 29.1491 253.274 29.1491C252.269 29.1491 251.387 28.9237 250.627 28.4727C249.87 28.0181 249.279 27.3736 248.853 26.5391C248.43 25.701 248.219 24.7067 248.219 23.5561C248.219 22.6754 248.343 21.8888 248.592 21.1964C248.844 20.5039 249.195 19.9162 249.646 19.4332C250.097 18.9467 250.627 18.5774 251.234 18.3253C251.841 18.0696 252.502 17.9418 253.215 17.9418C253.819 17.9418 254.382 18.0305 254.904 18.2081C255.426 18.3821 255.889 18.6307 256.294 18.9538C256.703 19.277 257.038 19.6605 257.301 20.1044C257.564 20.5483 257.736 21.0384 257.818 21.5746H255.804ZM263.303 29.1598C262.504 29.1598 261.811 28.984 261.225 28.6325C260.639 28.2809 260.185 27.7891 259.862 27.157C259.542 26.5249 259.382 25.7862 259.382 24.9411C259.382 24.0959 259.542 23.3555 259.862 22.7198C260.185 22.0842 260.639 21.5906 261.225 21.239C261.811 20.8874 262.504 20.7116 263.303 20.7116C264.102 20.7116 264.794 20.8874 265.38 21.239C265.966 21.5906 266.419 22.0842 266.739 22.7198C267.062 23.3555 267.223 24.0959 267.223 24.9411C267.223 25.7862 267.062 26.5249 266.739 27.157C266.419 27.7891 265.966 28.2809 265.38 28.6325C264.794 28.984 264.102 29.1598 263.303 29.1598ZM263.313 27.6151C263.747 27.6151 264.109 27.4961 264.4 27.2582C264.691 27.0167 264.908 26.6935 265.05 26.2887C265.196 25.8839 265.268 25.4329 265.268 24.9357C265.268 24.435 265.196 23.9822 265.05 23.5774C264.908 23.169 264.691 22.8441 264.4 22.6026C264.109 22.3612 263.747 22.2404 263.313 22.2404C262.87 22.2404 262.5 22.3612 262.206 22.6026C261.914 22.8441 261.696 23.169 261.55 23.5774C261.408 23.9822 261.337 24.435 261.337 24.9357C261.337 25.4329 261.408 25.8839 261.55 26.2887C261.696 26.6935 261.914 27.0167 262.206 27.2582C262.5 27.4961 262.87 27.6151 263.313 27.6151ZM272.429 29.1598C271.63 29.1598 270.937 28.984 270.351 28.6325C269.765 28.2809 269.311 27.7891 268.988 27.157C268.668 26.5249 268.508 25.7862 268.508 24.9411C268.508 24.0959 268.668 23.3555 268.988 22.7198C269.311 22.0842 269.765 21.5906 270.351 21.239C270.937 20.8874 271.63 20.7116 272.429 20.7116C273.228 20.7116 273.92 20.8874 274.506 21.239C275.092 21.5906 275.545 22.0842 275.865 22.7198C276.188 23.3555 276.349 24.0959 276.349 24.9411C276.349 25.7862 276.188 26.5249 275.865 27.157C275.545 27.7891 275.092 28.2809 274.506 28.6325C273.92 28.984 273.228 29.1598 272.429 29.1598ZM272.439 27.6151C272.873 27.6151 273.235 27.4961 273.526 27.2582C273.817 27.0167 274.034 26.6935 274.176 26.2887C274.322 25.8839 274.394 25.4329 274.394 24.9357C274.394 24.435 274.322 23.9822 274.176 23.5774C274.034 23.169 273.817 22.8441 273.526 22.6026C273.235 22.3612 272.873 22.2404 272.439 22.2404C271.996 22.2404 271.626 22.3612 271.331 22.6026C271.04 22.8441 270.822 23.169 270.676 23.5774C270.534 23.9822 270.463 24.435 270.463 24.9357C270.463 25.4329 270.534 25.8839 270.676 26.2887C270.822 26.6935 271.04 27.0167 271.331 27.2582C271.626 27.4961 271.996 27.6151 272.439 27.6151ZM281.544 32.2386C280.852 32.2386 280.257 32.1445 279.76 31.9563C279.263 31.7717 278.863 31.5231 278.561 31.2106C278.259 30.8981 278.05 30.5518 277.933 30.1719L279.669 29.7511C279.747 29.9109 279.861 30.0689 280.01 30.2251C280.159 30.3849 280.36 30.5163 280.612 30.6193C280.868 30.7259 281.189 30.7791 281.576 30.7791C282.123 30.7791 282.576 30.646 282.934 30.3796C283.293 30.1168 283.472 29.6836 283.472 29.0799V27.5298H283.377C283.277 27.7287 283.131 27.9329 282.94 28.1424C282.752 28.3519 282.501 28.5277 282.189 28.6697C281.88 28.8118 281.491 28.8828 281.022 28.8828C280.394 28.8828 279.824 28.7354 279.312 28.4407C278.804 28.1424 278.4 27.6985 278.098 27.109C277.799 26.516 277.65 25.7738 277.65 24.8825C277.65 23.984 277.799 23.2259 278.098 22.608C278.4 21.9865 278.806 21.516 279.318 21.1964C279.829 20.8732 280.399 20.7116 281.027 20.7116C281.507 20.7116 281.901 20.7933 282.21 20.9567C282.522 21.1165 282.771 21.31 282.956 21.5373C283.14 21.761 283.281 21.9723 283.377 22.1712H283.483V20.8182H285.385V29.1332C285.385 29.8327 285.218 30.4116 284.884 30.8697C284.55 31.3278 284.094 31.6705 283.515 31.8977C282.936 32.125 282.279 32.2386 281.544 32.2386ZM281.56 27.37C281.968 27.37 282.316 27.2706 282.604 27.0717C282.892 26.8729 283.11 26.587 283.259 26.2141C283.408 25.8413 283.483 25.3938 283.483 24.8718C283.483 24.3569 283.408 23.9059 283.259 23.5188C283.114 23.1317 282.897 22.8317 282.609 22.6186C282.325 22.402 281.976 22.2937 281.56 22.2937C281.13 22.2937 280.772 22.4055 280.484 22.6293C280.196 22.853 279.98 23.1602 279.834 23.5508C279.689 23.9379 279.616 24.3782 279.616 24.8718C279.616 25.3725 279.689 25.8111 279.834 26.1875C279.983 26.5604 280.202 26.8516 280.489 27.0611C280.781 27.267 281.138 27.37 281.56 27.37ZM289.289 18.0909V29H287.361V18.0909H289.289ZM294.894 29.1598C294.074 29.1598 293.365 28.9893 292.769 28.6484C292.176 28.304 291.719 27.8175 291.4 27.1889C291.08 26.5568 290.92 25.8129 290.92 24.957C290.92 24.1154 291.08 23.3768 291.4 22.7411C291.723 22.1019 292.174 21.6048 292.753 21.2496C293.332 20.891 294.012 20.7116 294.793 20.7116C295.297 20.7116 295.773 20.7933 296.221 20.9567C296.672 21.1165 297.069 21.3651 297.414 21.7024C297.762 22.0398 298.035 22.4695 298.234 22.9915C298.433 23.5099 298.532 24.1278 298.532 24.8452V25.4364H291.826V24.1367H296.684C296.68 23.7674 296.6 23.4389 296.444 23.1513C296.288 22.8601 296.07 22.631 295.789 22.4641C295.512 22.2972 295.189 22.2138 294.82 22.2138C294.425 22.2138 294.079 22.3097 293.781 22.5014C293.483 22.6896 293.25 22.9382 293.083 23.2472C292.92 23.5526 292.836 23.8881 292.833 24.2539V25.3885C292.833 25.8643 292.92 26.2727 293.094 26.6136C293.268 26.951 293.511 27.2102 293.824 27.3913C294.136 27.5689 294.502 27.6577 294.921 27.6577C295.201 27.6577 295.455 27.6186 295.683 27.5405C295.91 27.4588 296.107 27.3398 296.274 27.1836C296.441 27.0273 296.567 26.8338 296.652 26.603L298.452 26.8054C298.339 27.2812 298.122 27.6967 297.803 28.0518C297.487 28.4034 297.082 28.6768 296.588 28.8722C296.094 29.0639 295.53 29.1598 294.894 29.1598Z" fill="#F9F9F9"/>
<rect x="3" y="1.5" width="423" height="45" rx="4.5" stroke="#2E3545" shape-rendering="crispEdges"/>
</g>
<defs>
<filter id="filter0_d_161_43705" x="0.5" y="0" width="428" height="50" filterUnits="userSpaceOnUse" color-interpolation-filters="sRGB">
<feFlood flood-opacity="0" result="BackgroundImageFix"/>
<feColorMatrix in="SourceAlpha" type="matrix" values="0 0 0 0 0 0 0 0 0 0 0 0 0 0 0 0 0 0 127 0" result="hardAlpha"/>
<feOffset dy="1"/>
<feGaussianBlur stdDeviation="1"/>
<feComposite in2="hardAlpha" operator="out"/>
<feColorMatrix type="matrix" values="0 0 0 0 0.0627451 0 0 0 0 0.0941176 0 0 0 0 0.156863 0 0 0 0.04 0"/>
<feBlend mode="normal" in2="BackgroundImageFix" result="effect1_dropShadow_161_43705"/>
<feBlend mode="normal" in="SourceGraphic" in2="effect1_dropShadow_161_43705" result="shape"/>
</filter>
<clipPath id="clip0_161_43705">
<rect width="22" height="22" fill="white" transform="translate(129.5 13)"/>
</clipPath>
</defs>
</svg>
